#!OML:ASF E:/inclinewalkrobotboard/Project1/Captureday1/Session1/subject1.ASF
:FULLY-SPECIFIED
:DEGREES
313
root 0 0 0 17.44490215310665 -4.3392967072608695 -1.4512277702446332
lowerback 21.361333529674706 -3.2538591408681237 -1.177923743884972
upperback -0.8431071158186709 -4.811483413430505 3.858952185704525
thorax -12.690328053617055 -2.143763762439592 5.245037047766168
lowerneck -9.621425582039507 9.365191643527764 18.630325902773098
upperneck 21.41908694013274 10.982741195822616 -8.303362930688664
head 9.813005193351106 5.945269818030371 -4.61658515685236
rclavicle 1.4491713220676447E-15 6.3526556212463436E-15
rhumerus 28.97828866625588 18.51886665928295 -73.4621028426855
rradius 105.02284387129916
rwrist -39.7804796870886
rhand -24.44201552827849 -24.09758128504128
rfingers 7.125019999999997
rthumb 2.085964637632845 -54.51981318601308
lclavicle -2.7653449706209645E-15 6.576830259631581E-15
lhumerus 25.860187452200606 -34.91507476602126 73.08782787592419
lradius 141.74345503025137
lwrist 8.702603414866408
lhand -33.26931796100962 8.219851740832311
lfingers 7.1250199999999415
lthumb -6.442151718233994 38.67497891373432
rfemur -48.390323658495696 3.0393577329570682 29.397313495507557
rtibia 44.76725135386198
rfoot -21.688920933351735 -3.940404698373978
rtoes -44.07841829628136
lfemur -35.45439131830762 -22.84532018884699 -12.978002574175381
ltibia 10.8618521250357
lfoot -45.826550706103234 7.7473838830532085
ltoes -33.818173318451386
314
root 0 0 0 17.432560983904594 -4.3707169002048865 -1.4470183987763292
lowerback 21.392015167541857 -3.253653717735788 -1.187485418515228
upperback -0.8348246146735621 -4.813829948293286 3.848914955842946
thorax -12.697812327091732 -2.1450387805993656 5.23873633152696
lowerneck -9.627525231075321 9.376322435015442 18.636754695942155
upperneck 21.39879942649388 11.00063348269924 -8.3128440358329
head 9.810104623866374 5.95283260489804 -4.618665952284347
rclavicle 1.330489034068817E-15 6.371544607546503E-15
rhumerus 29.113642679576316 17.910854957437255 -73.10601084875955
rradius 103.95199192827205
rwrist -39.435600120423885
rhand -24.43734895429195 -24.224371432246194
rfingers 7.1250199999999975
rthumb 2.0915643542206865 -54.64646324168284
lclavicle -2.7936043680209352E-15 6.596066233801046E-15
lhumerus 25.875854343141725 -34.876287920744694 73.05326819907795
lradius 141.72291000373983
lwrist 8.683328023857532
lhand -33.265840079046896 8.21323676182269
lfingers 7.1250199999999415
lthumb -6.438589690262704 38.6680277269851
rfemur -48.911806565034425 3.173747068742104 29.240993916862912
rtibia 44.9393598459902
rfoot -21.956255152209412 -3.9306303190209473
rtoes -43.914951466456486
lfemur -35.54809978451188 -22.727376878143193 -13.051640989046138
ltibia 11.200602056676935
lfoot -45.71123877306126 7.6113644310237065
ltoes -33.84234316387874
315
root 0 0 0 17.42367629669989 -4.396174058044631 -1.442199482058459
lowerback 21.41634994979037 -3.2534581637451794 -1.1944917153467718
upperback -0.8280457080615431 -4.815457892417735 3.841818805859286
thorax -12.703575093822998 -2.1459446373411852 5.234252109741304
lowerneck -9.632690214801181 9.383610445065786 18.64030726680863
upperneck 21.38221438506271 11.012800938170301 -8.320328459756789
head 9.80733258720446 5.957722529736009 -4.6202657745064535
rclavicle 1.2036816345775937E-15 6.351522348760936E-15
rhumerus 29.233711613048666 17.400847444863217 -72.80660993641968
rradius 103.08431994977157
rwrist -39.16697530942566
rhand -24.434651565889638 -24.327690204805286
rfingers 7.1250199999999975
rthumb 2.09502654162287 -54.74978511100958
lclavicle -2.8487048522158375E-15 6.580814534569483E-15
lhumerus 25.887515554467754 -34.87470814472303 73.04465699017108
lradius 141.72626567693433
lwrist 8.677254229737226
lhand -33.26976038482229 8.210205386469681
lfingers 7.1250199999999415
lthumb -6.442280792288013 38.66515324495686
rfemur -49.37067438070058 3.29933838847095 29.116661520577434
rtibia 45.09306596182795
rfoot -22.218605609123895 -3.9157727365670585
rtoes -43.74746481795804
lfemur -35.85192286960123 -22.509962269971805 -13.10456875392805
ltibia 11.804477379462291
lfoot -45.56419678926365 7.415462518410256
ltoes -33.91458929735642
316
root 0 0 0 17.418685266752597 -4.414189522515972 -1.4374434734804828
lowerback 21.43322884189146 -3.2532143248649223 -1.1985225855537665
upperback -0.8231513527255983 -4.816218936886846 3.83788340628086
thorax -12.707438081113041 -2.1464117314426394 5.231616375812177
lowerneck -9.636581018801541 9.387048957112373 18.641368153706377
upperneck 21.37045219470023 11.018973830284194 -8.325120447000785
head 9.804983856198799 5.959953399430206 -4.621244067916258
rclavicle 1.083673079086768E-15 6.3007415521059995E-15
rhumerus 29.330236286069525 17.023245989533166 -72.5824510975692
rradius 102.48739013766004
rwrist -38.99461674693818
rhand -24.433925327483923 -24.40316598173409
rfingers 7.125019999999998
rthumb 2.096309631303079 -54.82539288913202
lclavicle -2.9228513498604737E-15 6.5363293906874185E-15
lhumerus 25.89461139418875 -34.906587211470736 73.05995034942953
lradius 141.75057353258455
lwrist 8.68345531566977
lhand -33.27990496572604 8.2106345882028
lfingers 7.125019999999941
lthumb -6.452086817487691 38.666165715085576
rfemur -49.73718619716335 3.4044812603971213 29.029037965675876
rtibia 45.220036126809674
rfoot -22.452754500502994 -3.8972131855039525
rtoes -43.591768154482764
lfemur -36.332977265045194 -22.21433801123214 -13.13497788055426
ltibia 12.617331914003707
lfoot -45.396627054209816 7.173705953641451
ltoes -34.02613239524933
317
root 0 0 0 17.417680774764328 -4.424133571153803 -1.4332175139487755
lowerback 21.44243553175998 -3.252847986206846 -1.199446527951479
upperback -0.8202713285345755 -4.816014244999072 3.837056697288304
thorax -12.709432322277049 -2.146397512394201 5.2307006199662425
lowerneck -9.63903962475908 9.386873542108123 18.640358976494163
upperneck 21.36387145719815 11.01935542653733 -8.326944339054748
head 9.80320634971235 5.959703753837378 -4.62155093521555
rclavicle 9.830263654739472E-16 6.2277110400222555E-15
rhumerus 29.39813886380933 16.802166390859224 -72.44628975227684
rradius 102.2049080732644
rwrist -38.930728548584234
rhand -24.435265330556657 -24.448276036560713
rfingers 7.125019999999998
rthumb 2.0953013995901824 -54.870760847184236
lclavicle -3.0092752411326843E-15 6.4682300026528964E-15
lhumerus 25.89653797877409 -34.96786189322013 73.09687543364684
lradius 141.79248963138664
lwrist 8.70085623396837
lhand -33.29497178749173 8.214430872812255
lfingers 7.125019999999941
lthumb -6.4667408732808624 38.67089675731723
rfemur -49.99997003461395 3.4835693990342325 28.97859755252271
rtibia 45.317127709853466
rfoot -22.646554234059117 -3.875961335910432
rtoes -43.45726132879221
lfemur -36.95957969209317 -21.859430430119044 -13.143743328114637
ltibia 13.591874080496954
lfoot -45.217075031913744 6.896463696831727
ltoes -34.16779598970742
318
root 0 0 0 17.420463038677834 -4.426082287017122 -1.4297509262411388
lowerback 21.444340288888355 -3.2523082924636446 -1.1973870509961868
upperback -0.819356264928679 -4.814825788464126 3.8391091902115235
thorax -12.709707029100368 -2.1458974655174994 5.231315438432167
lowerneck -9.640020761273263 9.3834312464505 18.637597120686664
upperneck 21.36218863480049 11.014458795125458 -8.325964539513626
head 9.801999601520569 5.957226525642992 -4.621232685238594
rclavicle 9.105748073757923E-16 6.139884692565269E-15
rhumerus 29.435148171981886 16.750649203327445 -72.40500974398972
rradius 102.25446993544439
rwrist -38.979061440508154
rhand -24.43882942041866 -24.461819156711712
rfingers 7.1250199999999975
rthumb 2.091843841795461 -54.884693646150936
lclavicle -3.102348582487634E-15 6.382042834781068E-15
lhumerus 25.892841636533895 -35.05416543042473 73.15287485246
lradius 141.84853446795486
lwrist 8.728212187153018
lhand -33.31365875667786 8.221458567299713
lfingers 7.125019999999941
lthumb -6.484972496739733 38.679133364322354
rfemur -50.15995041503367 3.535765819378236 28.96335890492092
rtibia 45.384216596776156
rfoot -22.796325016951048 -3.852855130409873
rtoes -43.34806496397231
lfemur -37.69963989858189 -21.462429449921263 -13.133683426195814
ltibia 14.685937873179473
lfoot -45.03197517140385 6.592612209174388
ltoes -34.33072148651445
